<svg width="80" height="80" viewBox="0 0 80 80" fill="none" xmlns="http://www.w3.org/2000/svg">
<g clip-path="url(#clip0)">
<path d="M73.9171 33.9189C73.9171 35.902 73.7349 37.842 73.4063 39.7345L72.8124 42.4945C70.9298 49.6925 66.7341 55.9638 61.0736 60.4676C61.1443 59.2928 60.8229 58.099 60.0814 57.1165C59.9882 56.9921 59.887 56.8791 59.7843 56.7662C59.8005 56.753 59.8172 56.7425 59.8323 56.7267C58.4299 53.2135 54.3799 51.0651 54.7357 46.4391C55.5661 38.5579 64.6528 41.9374 69.7698 39.2531C70.0789 37.5184 70.2499 35.7383 70.2499 33.9192C70.2499 22.5924 63.9894 12.7078 54.7527 7.52443C54.9034 7.66413 55.0595 7.80314 55.1942 7.94094C61.1513 13.8979 57.9421 14.3569 58.8603 21.2309C58.8603 23.5247 63.5965 23.1397 63.1385 27.2658C62.2221 31.3923 62.0695 35.4395 57.9421 32.001C53.8191 28.5633 51.069 31.3158 49.6927 30.8557C47.8598 29.9388 46.9448 25.8152 44.6539 25.8152C40.7294 26.0937 40.7436 30.9946 39.57 33.9261H35.7468C34.8472 33.9261 34.0037 34.1628 33.2712 34.5755C26.4268 29.0105 33.7212 14.3263 24.7417 7.81139C18.8391 11.2744 14.2112 16.6793 11.738 23.1446C14.0211 23.798 16.3407 24.7902 17.087 26.6128C18.8815 30.5836 16.3491 32.3774 15.0687 35.0237C14.9324 36.142 14.7174 37.1706 14.4165 37.9927C14.6621 42.1048 21.6261 45.8272 21.3216 49.9109C21.0699 53.2888 18.5435 53.4769 16.0197 52.3304C17.2652 53.9474 18.6773 55.4273 20.2179 56.764C20.1168 56.8751 20.0163 56.9863 19.9248 57.1086C19.2647 57.9822 18.8998 59.0686 18.8998 60.1643C18.8998 60.2662 18.919 60.3641 18.9251 60.4637C11.108 54.2469 6.08276 44.6616 6.08276 33.9189C6.08294 15.2157 21.297 0 39.9979 0C58.6991 0.00103223 73.9171 15.2157 73.9171 33.9189ZM55.7151 57.5125L45.1017 61.7065V37.1367C45.1017 36.6663 44.7215 36.2856 44.2508 36.2856H35.747C35.2775 36.2856 34.8969 36.6663 34.8969 37.1367V61.7046L24.2853 57.5117C23.9295 57.3704 23.5237 57.4835 23.294 57.7902C23.1791 57.9407 23.1228 58.1216 23.1228 58.3024C23.1228 58.4846 23.1815 58.6676 23.2986 58.8202L39.326 79.6667C39.4871 79.8773 39.736 80.0002 40.0003 80.0002C40.2633 80.0002 40.5128 79.8773 40.6741 79.6667L56.7016 58.8202C56.935 58.5172 56.9359 58.0957 56.7052 57.7904C56.4755 57.4854 56.0691 57.3722 55.7151 57.5125Z" fill="#E47194"/>
</g>
<defs>
<clipPath id="clip0">
<rect width="80" height="80" fill="white"/>
</clipPath>
</defs>
</svg>
