<svg width="110" height="110" viewBox="0 0 110 110" fill="none" xmlns="http://www.w3.org/2000/svg">
<mask id="path-1-inside-1" fill="white">
<path d="M108.362 53.9508C108.278 53.7451 108.154 53.5603 108 53.4055L89.0103 34.4163C88.8573 34.2633 88.6736 34.1411 88.4691 34.0559C88.2662 33.9713 88.0466 33.9255 87.8241 33.9255L21.3642 33.9255C21.1446 33.9237 20.9261 33.9695 20.7192 34.0547C20.3101 34.2239 19.9821 34.5519 19.8129 34.9611C19.7277 35.1679 19.6819 35.3864 19.6836 35.606L19.6831 73.5769C19.6825 73.7965 19.7271 74.015 19.8129 74.2213C19.8969 74.4294 20.0203 74.6142 20.1745 74.7684C20.3292 74.9231 20.5141 75.0465 20.7198 75.1306C20.9261 75.2163 21.1446 75.261 21.3636 75.2598L87.8235 75.2598C88.0472 75.2598 88.2674 75.2146 88.4696 75.1294C88.6736 75.0436 88.8573 74.9214 89.0103 74.7684L108 55.7792C108.154 55.625 108.277 55.4402 108.362 55.235C108.533 54.8242 108.533 54.3617 108.362 53.9508ZM23.0395 39.655L36.2992 52.9147L23.0395 52.9141L23.0395 39.655ZM86.1453 37.2814L86.1458 52.9147L41.0465 52.9147L25.4132 37.2814L86.1453 37.2814ZM89.5017 39.655L102.761 52.9147L89.5017 52.9141L89.5017 39.655ZM36.2986 56.2706L23.0395 69.5297L23.0395 56.2706L36.2986 56.2706ZM41.0459 56.2706H86.1453L86.1458 71.9039L25.4132 71.9033L41.0459 56.2706ZM89.5017 56.2706L102.761 56.2706L89.5017 69.5297L89.5017 56.2706Z"/>
</mask>
<path d="M108.362 53.9508C108.278 53.7451 108.154 53.5603 108 53.4055L89.0103 34.4163C88.8573 34.2633 88.6736 34.1411 88.4691 34.0559C88.2662 33.9713 88.0466 33.9255 87.8241 33.9255L21.3642 33.9255C21.1446 33.9237 20.9261 33.9695 20.7192 34.0547C20.3101 34.2239 19.9821 34.5519 19.8129 34.9611C19.7277 35.1679 19.6819 35.3864 19.6836 35.606L19.6831 73.5769C19.6825 73.7965 19.7271 74.015 19.8129 74.2213C19.8969 74.4294 20.0203 74.6142 20.1745 74.7684C20.3292 74.9231 20.5141 75.0465 20.7198 75.1306C20.9261 75.2163 21.1446 75.261 21.3636 75.2598L87.8235 75.2598C88.0472 75.2598 88.2674 75.2146 88.4696 75.1294C88.6736 75.0436 88.8573 74.9214 89.0103 74.7684L108 55.7792C108.154 55.625 108.277 55.4402 108.362 55.235C108.533 54.8242 108.533 54.3617 108.362 53.9508ZM23.0395 39.655L36.2992 52.9147L23.0395 52.9141L23.0395 39.655ZM86.1453 37.2814L86.1458 52.9147L41.0465 52.9147L25.4132 37.2814L86.1453 37.2814ZM89.5017 39.655L102.761 52.9147L89.5017 52.9141L89.5017 39.655ZM36.2986 56.2706L23.0395 69.5297L23.0395 56.2706L36.2986 56.2706ZM41.0459 56.2706H86.1453L86.1458 71.9039L25.4132 71.9033L41.0459 56.2706ZM89.5017 56.2706L102.761 56.2706L89.5017 69.5297L89.5017 56.2706Z" fill="#FB32FF"/>
<path d="M88.4691 34.0559L82.3092 48.8226L82.3182 48.8263L88.4691 34.0559ZM21.3642 33.9255L21.2375 49.925L21.3009 49.9255L21.3642 49.9255L21.3642 33.9255ZM20.7192 34.0547L14.6272 19.2599L14.6156 19.2646L14.6041 19.2694L20.7192 34.0547ZM19.8129 34.9611L5.02758 28.8459L5.02279 28.8575L5.01802 28.8691L19.8129 34.9611ZM19.6836 35.606L35.6836 35.6063L35.6836 35.5428L35.6831 35.4794L19.6836 35.606ZM19.6831 73.5769L35.683 73.6191L35.6831 73.5981L35.6831 73.5772L19.6831 73.5769ZM19.8129 74.2213L34.6485 68.2292L34.6181 68.1541L34.587 68.0793L19.8129 74.2213ZM20.7198 75.1306L26.8618 60.3564L26.8159 60.3373L26.7698 60.3185L20.7198 75.1306ZM21.3636 75.2598L21.3636 59.2598L21.3213 59.2598L21.279 59.26L21.3636 75.2598ZM87.8235 75.2598L87.8235 59.2598L87.8235 59.2598L87.8235 75.2598ZM88.4696 75.1294L82.2682 60.3801L82.2588 60.384L88.4696 75.1294ZM108.362 55.235L93.5894 49.0886L93.5798 49.1116L93.5703 49.1346L108.362 55.235ZM23.0395 39.655L34.3533 28.3413L7.03955 1.02763L7.03955 39.655L23.0395 39.655ZM36.2992 52.9147L36.2985 68.9147L74.9283 68.9164L47.6129 41.601L36.2992 52.9147ZM23.0395 52.9141L7.03955 52.9141L7.03955 68.9134L23.0389 68.9141L23.0395 52.9141ZM86.1453 37.2814L102.145 37.2808L102.145 21.2814H86.1453L86.1453 37.2814ZM86.1458 52.9147L86.1458 68.9147L102.146 68.9147L102.146 52.9141L86.1458 52.9147ZM41.0465 52.9147L29.7328 64.2284L34.4191 68.9147H41.0465V52.9147ZM25.4132 37.2814L25.4132 21.2814L-13.2142 21.2814L14.0995 48.5951L25.4132 37.2814ZM89.5017 39.655L100.815 28.3413L73.5017 1.02763L73.5017 39.655L89.5017 39.655ZM102.761 52.9147L102.761 68.9147L141.39 68.9164L114.075 41.601L102.761 52.9147ZM89.5017 52.9141L73.5017 52.9141V68.9134L89.501 68.9141L89.5017 52.9141ZM36.2986 56.2706L47.6123 67.5843L74.926 40.2706H36.2986L36.2986 56.2706ZM23.0395 69.5297L7.03955 69.5297L7.03955 108.157L34.3533 80.8434L23.0395 69.5297ZM23.0395 56.2706L23.0395 40.2706L7.03955 40.2706L7.03955 56.2706L23.0395 56.2706ZM41.0459 56.2706L41.0459 40.2706L34.4185 40.2706L29.7322 44.9569L41.0459 56.2706ZM86.1453 56.2706L102.145 56.27L102.145 40.2706L86.1453 40.2706V56.2706ZM86.1458 71.9039L86.1457 87.9039L102.146 87.904L102.146 71.9033L86.1458 71.9039ZM25.4132 71.9033L14.0995 60.5896L-13.2138 87.9029L25.413 87.9033L25.4132 71.9033ZM89.5017 56.2706L89.5017 40.2706L73.5017 40.2706L73.5017 56.2706L89.5017 56.2706ZM102.761 56.2706L114.075 67.5843L141.388 40.2706L102.761 40.2706L102.761 56.2706ZM89.5017 69.5297L73.5017 69.5297V108.157L100.815 80.8434L89.5017 69.5297ZM123.174 47.9008C122.283 45.719 120.968 43.7461 119.313 42.0918L96.6858 64.7192C95.3409 63.3744 94.2728 61.7713 93.5496 60.0008L123.174 47.9008ZM119.313 42.0918L100.324 23.1026L77.6966 45.73L96.6858 64.7192L119.313 42.0918ZM100.324 23.1026C98.6536 21.4322 96.7034 20.153 94.6199 19.2854L82.3182 48.8263C80.6439 48.1291 79.061 47.0945 77.6966 45.73L100.324 23.1026ZM94.6289 19.2891C92.5434 18.4192 90.2346 17.9255 87.8241 17.9255L87.8241 49.9255C85.8586 49.9255 83.9891 49.5234 82.3092 48.8226L94.6289 19.2891ZM87.8241 17.9255L21.3642 17.9255L21.3642 49.9255L87.8241 49.9255L87.8241 17.9255ZM21.4909 17.926C18.955 17.9059 16.6286 18.4358 14.6272 19.2599L26.8112 48.8496C25.2236 49.5033 23.3342 49.9416 21.2375 49.925L21.4909 17.926ZM14.6041 19.2694C10.2682 21.0627 6.82086 24.5101 5.02758 28.8459L34.5982 41.0762C33.1433 44.5938 30.3519 47.3852 26.8344 48.84L14.6041 19.2694ZM5.01802 28.8691C4.19392 30.8704 3.66406 33.1968 3.68414 35.7327L35.6831 35.4794C35.6997 37.576 35.2614 39.4654 34.6077 41.0531L5.01802 28.8691ZM3.68364 35.6058L3.68306 73.5767L35.6831 73.5772L35.6836 35.6063L3.68364 35.6058ZM3.68311 73.5347C3.67672 75.9582 4.17015 78.2741 5.03873 80.3634L34.587 68.0793C35.2841 69.7559 35.6882 71.6349 35.683 73.6191L3.68311 73.5347ZM4.97728 80.2134C5.87112 82.4264 7.19689 84.4182 8.86077 86.0821L31.4882 63.4547C32.8438 64.8103 33.9227 66.4323 34.6485 68.2292L4.97728 80.2134ZM8.86077 86.0821C10.5151 87.7364 12.4879 89.0515 14.6698 89.9426L26.7698 60.3185C28.5402 61.0416 30.1433 62.1098 31.4882 63.4547L8.86077 86.0821ZM14.5777 89.9047C16.6636 90.7718 18.9938 91.2726 21.4483 91.2596L21.279 59.26C23.2954 59.2493 25.1886 59.6608 26.8618 60.3564L14.5777 89.9047ZM21.3636 91.2598L87.8235 91.2598L87.8235 59.2598L21.3636 59.2598L21.3636 91.2598ZM87.8235 91.2598C90.1943 91.2598 92.5252 90.7826 94.6805 89.8748L82.2588 60.384C84.0096 59.6466 85.9 59.2598 87.8235 59.2598L87.8235 91.2598ZM94.6711 89.8787C96.7182 89.018 98.6547 87.7514 100.324 86.0821L77.6966 63.4547C79.0599 62.0913 80.6291 61.0693 82.2682 60.3801L94.6711 89.8787ZM100.324 86.0821L119.313 67.0929L96.6858 44.4655L77.6966 63.4547L100.324 86.0821ZM119.313 67.0929C120.969 65.4372 122.27 63.4775 123.153 61.3354L93.5703 49.1346C94.2846 47.4029 95.3384 45.8129 96.6858 44.4655L119.313 67.0929ZM123.134 61.3815C124.942 57.0364 124.942 52.1494 123.134 47.8044L93.5894 60.0973C92.1234 56.574 92.1234 52.6119 93.5894 49.0886L123.134 61.3815ZM11.7258 50.9688L24.9855 64.2284L47.6129 41.601L34.3533 28.3413L11.7258 50.9688ZM36.2999 36.9147L23.0402 36.9141L23.0389 68.9141L36.2985 68.9147L36.2999 36.9147ZM39.0395 52.9141L39.0395 39.655L7.03955 39.655L7.03955 52.9141L39.0395 52.9141ZM70.1453 37.282L70.1458 52.9153L102.146 52.9141L102.145 37.2808L70.1453 37.282ZM86.1458 36.9147L41.0465 36.9147V68.9147L86.1458 68.9147L86.1458 36.9147ZM52.3602 41.601L36.7269 25.9677L14.0995 48.5951L29.7328 64.2284L52.3602 41.601ZM25.4132 53.2814L86.1453 53.2814L86.1453 21.2814H25.4132L25.4132 53.2814ZM78.188 50.9688L91.4477 64.2284L114.075 41.601L100.815 28.3413L78.188 50.9688ZM102.762 36.9147L89.5024 36.9141L89.501 68.9141L102.761 68.9147L102.762 36.9147ZM105.502 52.9141L105.502 39.655L73.5017 39.655L73.5017 52.9141L105.502 52.9141ZM24.9849 44.9569L11.7258 58.2159L34.3533 80.8434L47.6123 67.5843L24.9849 44.9569ZM39.0395 69.5297L39.0395 56.2706L7.03955 56.2706L7.03955 69.5297L39.0395 69.5297ZM23.0396 72.2706L36.2986 72.2706L36.2986 40.2706L23.0395 40.2706L23.0396 72.2706ZM41.0459 72.2706L86.1453 72.2706L86.1453 40.2706L41.0459 40.2706V72.2706ZM70.1453 56.2712L70.1458 71.9045L102.146 71.9033L102.145 56.27L70.1453 56.2712ZM86.146 55.9039L25.4134 55.9033L25.413 87.9033L86.1457 87.9039L86.146 55.9039ZM36.7269 83.217L52.3596 67.5843L29.7322 44.9569L14.0995 60.5896L36.7269 83.217ZM89.5017 72.2706L102.761 72.2706L102.761 40.2706L89.5017 40.2706L89.5017 72.2706ZM91.4471 44.9569L78.188 58.2159L100.815 80.8434L114.075 67.5843L91.4471 44.9569ZM105.502 69.5297L105.502 56.2706L73.5017 56.2706L73.5017 69.5297L105.502 69.5297Z" fill="url(#paint0_angular)" mask="url(#path-1-inside-1)"/>
<defs>
<radialGradient id="paint0_angular" cx="0" cy="0" r="1" gradientUnits="userSpaceOnUse" gradientTransform="translate(44.0073 57.0072) rotate(124.992) scale(24.4131 24.4124)">
<stop offset="0.640625" stop-color="#5C14CA"/>
<stop offset="1" stop-color="#D46EEE" stop-opacity="0"/>
</radialGradient>
</defs>
</svg>
